<?xml version="1.0" encoding="utf-8"?>
<!-- Generator: Adobe Illustrator 17.0.0, SVG Export Plug-In . SVG Version: 6.00 Build 0)  -->
<!DOCTYPE svg PUBLIC "-//W3C//DTD SVG 1.1//EN" "http://www.w3.org/Graphics/SVG/1.1/DTD/svg11.dtd">
<svg version="1.1" id="Ebene_1" xmlns="http://www.w3.org/2000/svg" xmlns:xlink="http://www.w3.org/1999/xlink" x="0px" y="0px"
	 width="850.39px" height="921.26px" viewBox="0 0 850.39 921.26" enable-background="new 0 0 850.39 921.26" xml:space="preserve">
<g>
	<path fill="#00468C" d="M440.141,198.512c3.364,3.456,37.864,38.05,85.968,54.323c50.66,17.129,75.446,33.185,92.696,70.658
		c17.256,37.462,26.408,38.003,48.234,35.599c20.181-2.228,22.392,6.527,22.611,7.861c0.007,0.043,0.03,0.076,0.067,0.098
		c0.037,0.022,0.077,0.026,0.118,0.013c3.533-1.24,63.856-22.094,95.241-11.188c31.625,10.999,44.075,17.386,64.946,15.404
		c0.217-0.021,0.346,0.006,0.368,0.056v0.034c-0.021,0.054-0.135,0.123-0.354,0.187c-11.705,3.432-45.458,10.62-80.325,6.001
		c-36.381-4.818-78.678,2.673-94.315,14.456c-15.625,11.764-18.871,26.21-55.491,27.823c-0.022,0.001-0.041,0.006-0.061,0.016
		c-7,3.771-18.719,16.052-20.98,18.187c-2.694,2.551-16.159,2.694-28.554-11.23c-0.006-0.007-0.012-0.012-0.019-0.018
		c-0.283-0.219-6.544-5.197,1.754-10.69c8.491-5.621,28.704-12.049,28.704-18.469c0-6.148,1.483-19.277,1.611-20.402
		c0.005-0.049-0.013-0.094-0.051-0.125c-2.403-1.922-76.189-61.119-96.119-97.46c-0.019-0.035-0.049-0.058-0.088-0.068
		c-21.78-5.655-71.952-44.321-66.29-80.979C439.831,198.478,439.961,198.329,440.141,198.512L440.141,198.512z"/>
	<path fill="#00468C" d="M284.937,226.251c-12.851-4.92-18.979-12.541-35.134-28.033c-16.529-15.879-60.887-20.722-63.99-21.043
		c-0.043-0.005-0.077-0.026-0.101-0.062c-0.024-0.035-0.03-0.076-0.019-0.117c0.292-1.047,1.283-6.98-11.998-11.444
		c-14.631-4.93-20.295-7.944-19.807-36.187c0.493-28.246-10.368-45.451-37.374-70.926C93.57,36.803,82.051,9.268,79.109,1.488
		c-0.824-2.257-1.104-1.722-2.22,0.111c-0.001,0.001-0.001,0.002-0.002,0.003c-12.25,21.374,6.948,57.908,18.7,67.502
		c0.031,0.026,0.049,0.06,0.051,0.101c1.564,28.233,30.192,86.187,31.326,88.473c0.022,0.046,0.018,0.095-0.009,0.137
		c-0.514,0.792-5.4,8.348-7.248,12.103c-1.981,3.981-16.816,2.025-23.94,3.01c-6.916,0.963-4.524,5.841-4.392,6.101
		c0.004,0.008,0.007,0.015,0.01,0.024c3.635,12.245,12.247,16.108,14.73,15.319c2.105-0.654,13.315-4.809,18.922-5.085
		c0.022-0.001,0.041,0.003,0.061,0.011c23.794,9.743,30.29,1.765,43.829-0.934c13.563-2.693,42.779,5.087,64.465,18.755
		c19.63,12.365,41.859,17.923,51.429,19.606C285.819,226.901,285.726,226.553,284.937,226.251L284.937,226.251z"/>
	<path fill="#00468C" d="M535.921,71.927c-20.51,17.761-42.155,16.526-83.144,22.65c-39.797,5.936-51.662,23.091-52.462,24.321
		c-0.029,0.044-0.077,0.067-0.13,0.063c-22.235-1.7-29.809-2.163-46.222-11.416c-17.247-9.722-33.97-8.81-53.938-2.643
		c-19.959,6.157-31.007,8.156-45.887,6.858c-12.577-1.099-25.15-0.105-28.751,0.23c-0.071,0.007-0.125,0.064-0.128,0.135
		c-0.003,0.071,0.046,0.132,0.115,0.145c3.876,0.71,18.232,3.532,30.794,8.469c30.223,11.89,75.777-6.482,91.581-0.007
		c0.011,0.005,0.02,0.01,0.03,0.017c3.491,2.554-16.191,3.437-19.729,13.43c-0.047,0.134,0.107,0.379,0.226,0.368
		c12.985-1.272,27.212-1.659,33.015,2.188c5.878,3.896,24.481,10.383,42.086,1.635c15.894-7.916,26.043-7.889,27.851-7.811
		c0.192,0.009,0.264-0.063,0.2-0.212c-0.549-1.272-4.002-7.452-19.985-10.17c-0.059-0.01-0.103-0.053-0.115-0.111
		c-0.012-0.058,0.012-0.115,0.062-0.148c4.216-2.7,15.905-6.689,47.142-11.078c55.887-7.853,72.029-22.993,77.629-36.799
		C536.231,71.877,536.068,71.8,535.921,71.927L535.921,71.927z"/>
	<path fill="#00468C" d="M381.809,238.52c-6.013,2.459-29.205,11.74-49.435,17.072c-23.467,6.2-65.977,3.979-91.212,5.75
		c-20.917,1.467-51.55,33.205-61.44,44.03c-0.042,0.046-0.106,0.058-0.163,0.033c-2.836-1.303-6.002-2.637-9.687-4.049
		c-25.903-9.947-14.949-36.144-52.802-56.549c-37.33-20.104-89.448-40.692-116.556-72.1c-0.388-0.45-0.814-0.783-0.219,0.239
		c3.412,5.86,15.445,26.546,22.795,39.537c8.636,15.252,23.912,25.859,56.455,41.115c32.275,15.129,41.687,27.072,49.622,44.392
		c0.026,0.058,0.012,0.123-0.035,0.165c-0.048,0.042-0.115,0.048-0.169,0.014c-12.22-7.52-13.939-8.577-14.18-8.725
		c-0.027-0.016-0.054-0.023-0.086-0.021c-1.286,0.106-28.995,2.46-32.356,8.683c-0.055,0.101,0.052,0.306,0.152,0.307
		c11.036,0.092,31.394,7.357,46.866,19.186c15.444,11.823,62.448,9.347,78.543,10.578c0.167,0.014,0.301-0.165,0.206-0.266
		c-4.082-4.384-6.997-8.118-11.093-11.737c-0.035-0.031-0.052-0.073-0.047-0.119c0.004-0.047,0.029-0.085,0.069-0.109
		c10.58-6.21,38.401-22.81,48.737-30.985c0.012-0.009,0.022-0.016,0.036-0.021c17.402-6.789,56.458,4.266,78.596-2.814
		c19.965-6.379,51.82-37.223,57.876-43.212C382.941,238.265,382.772,238.127,381.809,238.52L381.809,238.52z"/>
</g>
<g>
	<path fill="#00468C" d="M410.253,680.405c-3.364,3.455-37.864,38.048-85.969,54.322c-50.659,17.129-75.445,33.185-92.695,70.658
		c-17.256,37.461-26.408,38.003-48.234,35.598c-20.181-2.228-22.392,6.526-22.611,7.86c-0.007,0.043-0.03,0.076-0.067,0.098
		c-0.037,0.022-0.077,0.026-0.118,0.013c-3.533-1.24-63.857-22.093-95.242-11.186c-31.625,10.999-44.075,17.387-64.945,15.403
		c-0.465-0.044-0.522,0.13-0.015,0.277c11.705,3.433,45.458,10.621,80.325,6.002c36.381-4.819,78.678,2.672,94.315,14.456
		c15.625,11.762,18.87,26.209,55.491,27.822c0.022,0.001,0.041,0.006,0.061,0.016c7,3.772,18.719,16.052,20.979,18.188
		c2.694,2.551,16.159,2.693,28.555-11.23c0.006-0.007,0.012-0.012,0.019-0.018c0.283-0.219,6.544-5.196-1.754-10.69
		c-8.491-5.621-28.704-12.048-28.704-18.468c0-6.148-1.483-19.277-1.611-20.403c-0.005-0.049,0.013-0.094,0.051-0.125
		c2.403-1.922,76.189-61.12,96.119-97.459c0.019-0.035,0.049-0.058,0.088-0.068c21.78-5.655,71.952-44.321,66.29-80.979
		C410.563,680.369,410.433,680.221,410.253,680.405L410.253,680.405z"/>
	<path fill="#00468C" d="M565.457,708.143c12.851-4.92,18.979-12.541,35.134-28.033c16.529-15.88,60.887-20.722,63.99-21.043
		c0.042-0.005,0.077-0.026,0.101-0.062c0.024-0.035,0.03-0.075,0.019-0.117c-0.292-1.047-1.282-6.979,11.998-11.444
		c14.631-4.929,20.295-7.944,19.807-36.187c-0.494-28.245,10.368-45.45,37.373-70.925c22.945-21.636,34.464-49.172,37.406-56.952
		c0.823-2.256,1.104-1.721,2.22,0.111c0.001,0.001,0.001,0.002,0.002,0.003c12.251,21.375-6.948,57.909-18.7,67.502
		c-0.031,0.026-0.049,0.06-0.051,0.101c-1.564,28.234-30.191,86.188-31.325,88.474c-0.021,0.046-0.018,0.095,0.009,0.137
		c0.513,0.792,5.399,8.348,7.247,12.103c1.981,3.981,16.816,2.024,23.939,3.01c6.917,0.963,4.525,5.841,4.393,6.101
		c-0.004,0.008-0.007,0.015-0.01,0.024c-3.635,12.244-12.247,16.108-14.731,15.319c-2.104-0.654-13.314-4.809-18.921-5.085
		c-0.022-0.001-0.041,0.003-0.061,0.011c-23.794,9.743-30.289,1.764-43.83-0.935c-13.563-2.692-42.777,5.088-64.465,18.756
		c-19.629,12.364-41.858,17.923-51.429,19.607C564.575,708.792,564.668,708.446,565.457,708.143L565.457,708.143z"/>
	<path fill="#00468C" d="M314.473,553.819c20.51,17.76,42.155,16.526,83.144,22.65c39.797,5.936,51.662,23.091,52.462,24.321
		c0.029,0.044,0.077,0.067,0.13,0.063c22.235-1.699,29.808-2.163,46.222-11.415c17.246-9.722,33.97-8.81,53.938-2.644
		c19.959,6.158,31.007,8.156,45.886,6.859c12.578-1.099,25.15-0.105,28.751,0.23c0.071,0.007,0.125,0.064,0.128,0.135
		c0.003,0.071-0.046,0.133-0.115,0.146c-3.876,0.71-18.231,3.532-30.793,8.469c-30.223,11.891-75.777-6.482-91.581-0.007
		c-0.011,0.005-0.02,0.01-0.03,0.017c-3.491,2.555,16.191,3.438,19.729,13.431c0.048,0.133-0.106,0.378-0.225,0.367
		c-12.985-1.272-27.213-1.658-33.015,2.189c-5.877,3.896-24.481,10.383-42.086,1.635c-15.894-7.916-26.043-7.889-27.851-7.811
		c-0.192,0.008-0.264-0.064-0.2-0.212c0.549-1.273,4.002-7.452,19.985-10.17c0.059-0.01,0.103-0.053,0.115-0.111
		c0.012-0.058-0.012-0.115-0.062-0.148c-4.216-2.7-15.904-6.689-47.142-11.078c-55.887-7.854-72.029-22.993-77.629-36.799
		C314.163,553.769,314.325,553.692,314.473,553.819L314.473,553.819z"/>
	<path fill="#00468C" d="M468.584,720.412c6.014,2.459,29.205,11.74,49.436,17.072c23.466,6.2,65.976,3.978,91.212,5.75
		c20.916,1.468,51.55,33.203,61.439,44.029c0.042,0.046,0.106,0.058,0.163,0.033c2.838-1.302,6.003-2.637,9.688-4.049
		c25.903-9.946,14.949-36.143,52.802-56.547c37.33-20.105,89.448-40.694,116.555-72.102c0.233-0.269,0.479-0.496,0.511-0.416v0.039
		c0,0.013-0.001,0.024-0.005,0.036c-0.025,0.098-0.112,0.281-0.286,0.581c-3.412,5.861-15.446,26.546-22.795,39.538
		c-8.636,15.252-23.912,25.859-56.455,41.115c-32.274,15.13-41.687,27.072-49.622,44.391c-0.027,0.058-0.012,0.123,0.035,0.166
		c0.048,0.042,0.115,0.048,0.168,0.014c12.222-7.519,13.94-8.576,14.181-8.724c0.027-0.016,0.054-0.023,0.086-0.021
		c1.286,0.106,28.994,2.459,32.356,8.682c0.054,0.102-0.053,0.307-0.152,0.308c-11.037,0.091-31.395,7.356-46.867,19.186
		c-15.444,11.823-62.448,9.346-78.544,10.579c-0.167,0.012-0.3-0.166-0.205-0.268c4.082-4.383,6.998-8.117,11.093-11.736
		c0.035-0.031,0.052-0.073,0.047-0.119c-0.005-0.047-0.029-0.085-0.069-0.109c-10.581-6.21-38.401-22.81-48.736-30.985
		c-0.012-0.009-0.022-0.016-0.036-0.021c-17.403-6.789-56.458,4.266-78.596-2.814c-19.965-6.379-51.82-37.223-57.877-43.212
		C467.453,720.157,467.622,720.018,468.584,720.412L468.584,720.412z"/>
</g>
</svg>
